# xmcd
#
# Track frame offsets:
#	150
#	19277
#	37374
#	55744
#	69097
#	85545
#	101434
#	120562
#	138659
#	157029
#	170380
#	186828
#
# Disc length: 2702 seconds
#
# Revision: 2
# Processed by: cddbd v1.5.2PL0 Copyright (c) Steve Scherf et al.
# Submitted via: audiograbber 1.83.01
#
DISCID=9d0a8c0c
DTITLE=Various Artist - CB20047
DYEAR=1900
DGENRE=KARAOKE
TTITLE0=LORRIE MORGAN (WVOCAL) - You'd Think He'd Know Me
TTITLE1=REBA MCENTIRE (WVOCAL) - Forever Love
TTITLE2=THE WILKINSONS (WVOCAL) - 26 cents
TTITLE3=THE LYNNS (WVOCAL) - What Am I Doing Loving You
TTITLE4=SHERRIE AUSTIN (WVOCAL) - Innocent Man
TTITLE5=THE KINLEYS (WVOCAL) - You Make It Seem So Easy
TTITLE6=LORRIE MORGAN - You'd Think He'd Know Better
TTITLE7=REBA MCENTIRE - Forever Love
TTITLE8=THE WILKINSONS - 26 Cents
TTITLE9=THE LYNNS - What Am I Doing Loving You
TTITLE10=SHERRIE AUSTIN - Innocent Man
TTITLE11=THE KINLEYS - You Make It Seem So Easy
EXTD=
EXTT0=
EXTT1=
EXTT2=
EXTT3=
EXTT4=
EXTT5=
EXTT6=
EXTT7=
EXTT8=
EXTT9=
EXTT10=
EXTT11=
PLAYORDER=
